<svg xmlns="http://www.w3.org/2000/svg" viewBox="0 0 344.24 60.98"><defs><style>.cls-1,.cls-2{fill:#333233;}.cls-1{fill-rule:evenodd;}</style></defs><g id="Capa_2" data-name="Capa 2"><g id="HOME"><path class="cls-1" d="M337.5,29.88h.86a4.14,4.14,0,0,0,1.05-.08.64.64,0,0,0,.32-.24.75.75,0,0,0,.12-.43.65.65,0,0,0-.16-.47.7.7,0,0,0-.43-.23c-.1,0-.38,0-.85,0h-.91Zm-1.16,3.31V27.44h2.45a3.89,3.89,0,0,1,1.33.16,1.31,1.31,0,0,1,.67.54,1.66,1.66,0,0,1,.25.91,1.53,1.53,0,0,1-.37,1.07,1.8,1.8,0,0,1-1.14.53,2.89,2.89,0,0,1,.62.48,6.53,6.53,0,0,1,.66.94l.7,1.12h-1.39l-.83-1.26a9.73,9.73,0,0,0-.61-.84.88.88,0,0,0-.36-.23,1.64,1.64,0,0,0-.58-.07h-.24v2.4Zm2.58-7.4a4.53,4.53,0,1,1-4.52,4.52A4.53,4.53,0,0,1,338.92,25.79Zm0-.8a5.32,5.32,0,1,1-5.32,5.32A5.32,5.32,0,0,1,338.92,25Z"/><path class="cls-2" d="M63.7,13.85a9,9,0,0,1-1.53,1.5,9.4,9.4,0,0,1-1.73,1A8.28,8.28,0,0,1,58.6,17a9.32,9.32,0,0,1-1.88.2,9,9,0,0,1-3.45-.66A8.75,8.75,0,0,1,48.54,12a8.37,8.37,0,0,1-.7-3.4,8,8,0,0,1,.7-3.34,8.39,8.39,0,0,1,1.9-2.72A9,9,0,0,1,56.72,0,8.54,8.54,0,0,1,60.6.89a9.41,9.41,0,0,1,3,2.32L61.41,5.42a5.69,5.69,0,0,0-2.09-1.81,6,6,0,0,0-2.58-.55,5.59,5.59,0,0,0-2.21.44,5.75,5.75,0,0,0-1.81,1.19,5.59,5.59,0,0,0-1.23,1.76,5.32,5.32,0,0,0-.44,2.14,5.39,5.39,0,0,0,.44,2.17,5.89,5.89,0,0,0,1.22,1.77,5.72,5.72,0,0,0,1.81,1.2,5.65,5.65,0,0,0,2.21.43,5.33,5.33,0,0,0,2.11-.41,6.63,6.63,0,0,0,1.78-1.1V11.06h-3.4V8.32H63.7Z"/><path class="cls-2" d="M80.7,16.9H77.17L76,13.13A5.89,5.89,0,0,0,75.54,12a3.36,3.36,0,0,0-.67-.89,3,3,0,0,0-1-.58,3.63,3.63,0,0,0-1.29-.21H71.42V16.9H68.26V.35l6.53,0a5.25,5.25,0,0,1,2,.36,4.7,4.7,0,0,1,2.61,2.52,4.71,4.71,0,0,1,.37,1.88A4.43,4.43,0,0,1,79.5,6.5a4.65,4.65,0,0,1-.63,1.26,5.32,5.32,0,0,1-1,1,4,4,0,0,1-1.25.67,3.32,3.32,0,0,1,1.28.84,4.12,4.12,0,0,1,.78,1.32c.19.47.37.94.54,1.42s.37,1.1.61,1.83c.16.45.3.84.43,1.17A6.27,6.27,0,0,0,80.7,16.9ZM76.52,5.32a2.38,2.38,0,0,0-.22-1.05,2.62,2.62,0,0,0-1.47-1.38,3,3,0,0,0-1.08-.2H71.42V7.85h2.33a3.22,3.22,0,0,0,1.08-.18,2.4,2.4,0,0,0,.88-.51,2.31,2.31,0,0,0,.59-.79A2.38,2.38,0,0,0,76.52,5.32Z"/><path class="cls-2" d="M101.47,16.9H98l-1.53-3.32h-8L86.83,16.9H83.31L91.14.33h2.5Zm-6.32-6L92.4,5l-2.8,6Z"/><path class="cls-2" d="M119,16.9h-3.15L108.34,5.28V16.9H105.2V.33h3.6l7,10.81V.33H119Z"/><path class="cls-2" d="M145.18,16.9h-3.53l-1.18-3.77A5.89,5.89,0,0,0,140,12a3.19,3.19,0,0,0-.68-.89,2.76,2.76,0,0,0-1-.58,3.56,3.56,0,0,0-1.29-.21h-1.19V16.9h-3.17V.35l6.53,0a5.25,5.25,0,0,1,2,.36,4.66,4.66,0,0,1,1.57,1,4.53,4.53,0,0,1,1,1.51,4.89,4.89,0,0,1,.37,1.88A4.43,4.43,0,0,1,144,6.5a4.4,4.4,0,0,1-.64,1.26,4.73,4.73,0,0,1-1,1,4.09,4.09,0,0,1-1.25.67,3.25,3.25,0,0,1,1.28.84,4.12,4.12,0,0,1,.78,1.32c.19.47.37.94.54,1.42s.37,1.1.61,1.83c.15.45.3.84.43,1.17A6.27,6.27,0,0,0,145.18,16.9ZM141,5.32a2.38,2.38,0,0,0-.22-1.05,2.46,2.46,0,0,0-.59-.83,2.57,2.57,0,0,0-.88-.55,3,3,0,0,0-1.09-.2h-2.31V7.85h2.31a3.24,3.24,0,0,0,1.09-.18,2.48,2.48,0,0,0,.88-.51,2.31,2.31,0,0,0,.59-.79A2.38,2.38,0,0,0,141,5.32Z"/><path class="cls-2" d="M160.17,16.9H149.24V.35h10.93V3h-7.78V7h7.68V9.55h-7.68V14.1h7.78Z"/><path class="cls-2" d="M175.79,12.55a4,4,0,0,1-.41,1.77,4.72,4.72,0,0,1-1.12,1.48,5.56,5.56,0,0,1-1.72,1,6,6,0,0,1-2.2.39,12.69,12.69,0,0,1-1.94-.13,7.44,7.44,0,0,1-1.61-.4,7.14,7.14,0,0,1-1.45-.69,15.77,15.77,0,0,1-1.44-1l2.28-2.31a6.55,6.55,0,0,0,1.95,1.17,6,6,0,0,0,2.06.34,2.73,2.73,0,0,0,.87-.13,2.57,2.57,0,0,0,.7-.36,1.61,1.61,0,0,0,.47-.54,1.36,1.36,0,0,0,.18-.68,1.8,1.8,0,0,0-.14-.71,1.86,1.86,0,0,0-.52-.6,5.8,5.8,0,0,0-1-.59c-.44-.19-1-.42-1.69-.67a15.35,15.35,0,0,1-1.75-.75,6,6,0,0,1-1.47-1,4.63,4.63,0,0,1-1-1.41,4.47,4.47,0,0,1-.38-1.9,4.52,4.52,0,0,1,.42-1.95A4.7,4.7,0,0,1,166,1.33a5.47,5.47,0,0,1,1.72-1A6.37,6.37,0,0,1,169.82,0,8.87,8.87,0,0,1,173,.5,6.83,6.83,0,0,1,175.35,2L173.12,4.2A4.31,4.31,0,0,0,169.93,3a2.46,2.46,0,0,0-.88.15,2.24,2.24,0,0,0-.7.38,1.77,1.77,0,0,0-.46.56,1.35,1.35,0,0,0-.18.67,1.59,1.59,0,0,0,.17.72,1.86,1.86,0,0,0,.56.62,5.62,5.62,0,0,0,1,.6c.44.2,1,.41,1.63.65a12.64,12.64,0,0,1,2.13.94,5.91,5.91,0,0,1,1.45,1.14,4.2,4.2,0,0,1,.83,1.41A5.31,5.31,0,0,1,175.79,12.55Z"/><path class="cls-2" d="M191.07,16.9H180.13V.35h10.94V3h-7.79V7H191V9.55h-7.68V14.1h7.79Z"/><path class="cls-2" d="M208.07,16.9h-3.54l-1.17-3.77A6.61,6.61,0,0,0,202.9,12a3.16,3.16,0,0,0-.67-.89,2.86,2.86,0,0,0-.95-.58,3.6,3.6,0,0,0-1.29-.21h-1.2V16.9h-3.17V.35l6.54,0a5.29,5.29,0,0,1,2,.36,4.64,4.64,0,0,1,2.6,2.52,4.71,4.71,0,0,1,.37,1.88,4.43,4.43,0,0,1-.22,1.41,4.67,4.67,0,0,1-.64,1.26,4.78,4.78,0,0,1-1,1,3.93,3.93,0,0,1-1.24.67,3.21,3.21,0,0,1,1.27.84,4,4,0,0,1,.78,1.32c.2.47.38.94.54,1.42s.37,1.1.62,1.83q.22.68.42,1.17A6.26,6.26,0,0,0,208.07,16.9ZM203.88,5.32a2.52,2.52,0,0,0-.21-1.05,2.78,2.78,0,0,0-.59-.83,2.67,2.67,0,0,0-.88-.55,3.06,3.06,0,0,0-1.09-.2h-2.32V7.85h2.32a3.28,3.28,0,0,0,1.09-.18,2.5,2.5,0,0,0,1.47-1.3A2.52,2.52,0,0,0,203.88,5.32Z"/><path class="cls-2" d="M226.12.33,219.85,16.9h-2.94L210.49.33h3.56L218.36,12,222.6.33Z"/><path class="cls-2" d="M243.66,16.9h-3.52l-1.53-3.32h-8L229,16.9H225.5L233.33.33h2.5Zm-6.31-6-2.76-6-2.8,6Z"/><path class="cls-2" d="M270.7,8.61a8.77,8.77,0,0,1-.58,3.22,8.17,8.17,0,0,1-1.61,2.63A7.28,7.28,0,0,1,266,16.24a7.41,7.41,0,0,1-3.13.66H256V.33h6.92a7.53,7.53,0,0,1,5.61,2.43,8.43,8.43,0,0,1,1.61,2.64A8.83,8.83,0,0,1,270.7,8.61Zm-3.25-.08A5.44,5.44,0,0,0,267,6.45a6.07,6.07,0,0,0-1.16-1.82,5.89,5.89,0,0,0-1.74-1.29A4.92,4.92,0,0,0,262,2.86h-2.8v11.3H262a5.2,5.2,0,0,0,2.14-.45,5.71,5.71,0,0,0,1.74-1.23A5.79,5.79,0,0,0,267,10.67,5.55,5.55,0,0,0,267.45,8.53Z"/><path class="cls-2" d="M286.19,16.9H275.26V.35h10.93V3h-7.78V7h7.68V9.55h-7.68V14.1h7.78Z"/><path class="cls-2" d="M26.75,45.37a16.16,16.16,0,0,1-1.05,5.85A14.86,14.86,0,0,1,22.76,56a13.69,13.69,0,0,1-10.19,4.42H0V30.31H12.57a13.65,13.65,0,0,1,10.19,4.43,14.69,14.69,0,0,1,2.94,4.79A16.22,16.22,0,0,1,26.75,45.37Zm-5.91-.15a9.77,9.77,0,0,0-.77-3.79A11.09,11.09,0,0,0,18,38.12a10.63,10.63,0,0,0-3.16-2.33,8.84,8.84,0,0,0-3.9-.88H5.83V55.45h5.08a9.38,9.38,0,0,0,3.9-.83A10,10,0,0,0,18,52.38a10.54,10.54,0,0,0,2.1-3.27A10,10,0,0,0,20.84,45.22Z"/><path class="cls-2" d="M65.81,45.37a14.93,14.93,0,0,1-1.26,6.09,15.64,15.64,0,0,1-3.44,5A16.53,16.53,0,0,1,56,59.76a16.24,16.24,0,0,1-12.35,0,16.5,16.5,0,0,1-5.09-3.33,15.78,15.78,0,0,1-3.44-5,14.88,14.88,0,0,1-1.26-6.11,15.06,15.06,0,0,1,1.26-6.14,15.75,15.75,0,0,1,3.44-5A16.27,16.27,0,0,1,43.69,31a16,16,0,0,1,20.86,8.3A14.93,14.93,0,0,1,65.81,45.37Zm-5.83,0a9.85,9.85,0,0,0-.79-3.9A10.35,10.35,0,0,0,57,38.27a10.59,10.59,0,0,0-3.22-2.18,10,10,0,0,0-7.88,0,10.63,10.63,0,0,0-3.23,2.18,10.32,10.32,0,0,0-2.16,3.2,9.83,9.83,0,0,0,0,7.77,10.18,10.18,0,0,0,2.16,3.22,10.63,10.63,0,0,0,3.23,2.18,10,10,0,0,0,7.88,0A10.59,10.59,0,0,0,57,52.46a10.21,10.21,0,0,0,2.17-3.22A9.85,9.85,0,0,0,60,45.37Z"/><path class="cls-2" d="M99.15,60.42H93.43L79.84,39.31V60.42H74.12V30.31h6.55L93.43,50V30.31h5.72Z"/><path class="cls-2" d="M154.53,60.42h-6.39l-2.79-6h-14.6l-2.82,6h-6.39l14.22-30.11h4.55ZM143.06,49.58l-5-10.84L133,49.58Z"/><path class="cls-2" d="M181.66,60.42H161.31V30.35h5.94V54.77h14.41Z"/><path class="cls-2" d="M210.26,51.8a7.79,7.79,0,0,1-.77,3.48A8.76,8.76,0,0,1,207.44,58a9.59,9.59,0,0,1-2.95,1.79,9.93,9.93,0,0,1-3.52.63l-12.15,0V30.31h10.83a10.92,10.92,0,0,1,3.63.59,8.55,8.55,0,0,1,2.92,1.69,7.86,7.86,0,0,1,1.94,2.71,9,9,0,0,1,.69,3.59,7.6,7.6,0,0,1-.75,3.28,8.22,8.22,0,0,1-2,2.67,6.83,6.83,0,0,1,1.76,1.24,8.11,8.11,0,0,1,1.31,1.67,7.95,7.95,0,0,1,1.11,4ZM203.07,39a4,4,0,0,0-.41-1.87,3.9,3.9,0,0,0-1.11-1.33A4.79,4.79,0,0,0,200,35a6.52,6.52,0,0,0-1.88-.27h-3.42V43c.62,0,1.19,0,1.69,0h1.73a8.27,8.27,0,0,0,1.88-.22,4.87,4.87,0,0,0,1.6-.72,3.75,3.75,0,0,0,1.11-1.26A3.84,3.84,0,0,0,203.07,39Zm1.14,12.47a4.33,4.33,0,0,0-.36-1.74,4,4,0,0,0-1-1.34,4.68,4.68,0,0,0-1.43-.85,5,5,0,0,0-1.75-.3c-.86,0-1.69,0-2.52,0l-2.52,0V55.6H199a7.56,7.56,0,0,0,1.88-.23,4.9,4.9,0,0,0,1.68-.73,4.05,4.05,0,0,0,1.18-1.29A3.65,3.65,0,0,0,204.21,51.48Z"/><path class="cls-2" d="M238,60.42H218.17V30.35H238v4.82H223.88v7.19h14v4.7h-14v8.28H238Z"/><path class="cls-2" d="M268.92,60.42H262.5l-2.14-6.85a12.07,12.07,0,0,0-.82-2.07,5.88,5.88,0,0,0-1.23-1.62,5.17,5.17,0,0,0-1.72-1.05,6.64,6.64,0,0,0-2.34-.38h-2.18v12h-5.76V30.35l11.87,0a9.6,9.6,0,0,1,3.57.66,8.61,8.61,0,0,1,2.85,1.83,8.42,8.42,0,0,1,1.88,2.74,8.67,8.67,0,0,1,.67,3.43,7.93,7.93,0,0,1-.41,2.56,8.37,8.37,0,0,1-1.16,2.29,8.72,8.72,0,0,1-1.77,1.87,7.73,7.73,0,0,1-2.26,1.22,5.83,5.83,0,0,1,2.32,1.52,7.47,7.47,0,0,1,1.42,2.39c.34.85.67,1.72,1,2.6l1.12,3.31c.28.83.53,1.54.77,2.13A11.94,11.94,0,0,0,268.92,60.42Zm-7.6-21a4.64,4.64,0,0,0-.39-1.92,4.87,4.87,0,0,0-1.08-1.5,4.67,4.67,0,0,0-1.6-1,5.35,5.35,0,0,0-2-.36h-4.21V44h4.21a5.77,5.77,0,0,0,2-.32,4.51,4.51,0,0,0,1.6-.92,4.34,4.34,0,0,0,1.08-1.45A4.45,4.45,0,0,0,261.32,39.38Z"/><path class="cls-2" d="M297,35.54h-8.32V60.42h-5.91V35.54h-8.31V30.35H297Z"/><path class="cls-2" d="M333.6,45.37a15.08,15.08,0,0,1-1.25,6.09,15.64,15.64,0,0,1-3.44,5,16.7,16.7,0,0,1-5.08,3.33,16.21,16.21,0,0,1-12.34,0,16.55,16.55,0,0,1-5.1-3.33,15.59,15.59,0,0,1-3.43-5,14.73,14.73,0,0,1-1.27-6.11A14.9,14.9,0,0,1,303,39.23a15.56,15.56,0,0,1,3.43-5,16.32,16.32,0,0,1,5.1-3.31,16.46,16.46,0,0,1,12.34,0,16.33,16.33,0,0,1,5.08,3.33,16,16,0,0,1,3.44,5A15.09,15.09,0,0,1,333.6,45.37Zm-5.83,0a9.68,9.68,0,0,0-.79-3.9,10.35,10.35,0,0,0-2.17-3.2,10.47,10.47,0,0,0-3.22-2.18,10,10,0,0,0-7.88,0,10.59,10.59,0,0,0-3.22,2.18,10.35,10.35,0,0,0-2.17,3.2,9.95,9.95,0,0,0,0,7.77,10.21,10.21,0,0,0,2.17,3.22,10.59,10.59,0,0,0,3.22,2.18,10,10,0,0,0,7.88,0,10.47,10.47,0,0,0,3.22-2.18A10.21,10.21,0,0,0,327,49.24,9.67,9.67,0,0,0,327.77,45.37Z"/></g></g></svg>